# Blender v2.78 (sub 0) OBJ File: 'chair2_seat.blend'
# www.blender.org
mtllib chair2_seat.mtl
o Cube
v -0.971341 -0.426784 0.714100
v -1.187062 -0.632110 0.910518
v -0.971341 -0.426784 -0.714100
v -1.187062 -0.632110 -0.910518
v 0.597218 -0.426784 0.714100
v 0.812938 -0.632110 0.910518
v 0.597218 -0.426784 -0.714100
v 0.812938 -0.632110 -0.910518
v -1.187062 -0.539156 -0.910518
v -1.187062 -0.539156 0.910518
v 0.812938 -0.539156 -0.910518
v 0.812938 -0.539156 0.910518
vt 0.4897 0.6653
vt 0.2603 0.3708
vt 0.4897 0.3708
vt 0.7397 0.6653
vt 0.5103 0.3708
vt 0.7397 0.3708
vt 0.9897 0.6653
vt 0.7603 0.3708
vt 0.9897 0.3708
vt 0.0103 0.0133
vt 0.2397 0.3078
vt 0.0103 0.3078
vt 1.0000 0.0000
vt 0.0000 1.0000
vt 0.0000 0.0000
vt 0.2397 0.9867
vt 0.0103 0.6919
vt 0.2397 0.6919
vt 0.4649 0.0133
vt 0.2851 0.0133
vt 0.7149 0.0133
vt 0.5351 0.0133
vt 0.9649 0.0133
vt 0.7851 0.0133
vt 0.0351 0.6653
vt 0.2149 0.6653
vt 0.2603 0.6919
vt 0.4402 0.6919
vt 0.2603 0.9231
vt 0.4402 0.9231
vt 0.2603 0.6653
vt 0.5103 0.6653
vt 0.7603 0.6653
vt 0.2397 0.0133
vt 1.0000 1.0000
vt 0.0103 0.9867
vn 1.0000 0.0000 0.0000
vn 0.0000 0.0000 1.0000
vn -1.0000 0.0000 0.0000
vn 0.0000 0.0000 -1.0000
vn 0.0000 -1.0000 0.0000
vn 0.0000 1.0000 0.0000
vn 0.4620 -0.8869 0.0000
vn 0.0000 -0.8680 0.4966
vn -0.4620 -0.8869 0.0000
vn 0.0000 -0.8680 -0.4966
usemtl chair2_seat_material
s off
f 2/1/1 9/2/1 10/3/1
f 4/4/2 11/5/2 9/6/2
f 8/7/3 12/8/3 11/9/3
f 6/10/4 10/11/4 12/12/4
f 7/13/5 1/14/5 3/15/5
f 4/16/6 6/17/6 8/18/6
f 1/19/7 9/2/7 3/20/7
f 3/21/8 11/5/8 7/22/8
f 7/23/9 12/8/9 5/24/9
f 5/25/10 10/11/10 1/26/10
f 7/27/5 5/28/5 3/29/5
f 3/29/5 5/28/5 1/30/5
f 2/1/1 4/31/1 9/2/1
f 4/4/2 8/32/2 11/5/2
f 8/7/3 6/33/3 12/8/3
f 6/10/4 2/34/4 10/11/4
f 7/13/5 5/35/5 1/14/5
f 4/16/6 2/36/6 6/17/6
f 1/19/7 10/3/7 9/2/7
f 3/21/8 9/6/8 11/5/8
f 7/23/9 11/9/9 12/8/9
f 5/25/10 12/12/10 10/11/10
